<svg width="16" height="16" viewBox="0 0 16 16" fill="none" xmlns="http://www.w3.org/2000/svg">
<rect width="16" height="16" rx="8" fill="#00ACEE"/>
<path d="M11.6892 6.11633C12.0627 5.89304 12.3422 5.54143 12.4754 5.12717C12.1244 5.33542 11.7404 5.48212 11.34 5.56092C10.7848 4.97364 9.90521 4.83072 9.19267 5.21202C8.48012 5.59333 8.11104 6.40445 8.29167 7.19217C6.854 7.11999 5.51457 6.44088 4.60667 5.32383C4.13285 6.14109 4.37498 7.18583 5.16 7.71133C4.87613 7.70221 4.59855 7.62535 4.35042 7.48717C4.35042 7.49467 4.35042 7.50217 4.35042 7.50967C4.35058 8.36098 4.95057 9.09428 5.785 9.263C5.52169 9.33464 5.2455 9.34518 4.9775 9.29383C5.21217 10.0219 5.88315 10.5206 6.64792 10.5355C6.01451 11.0326 5.23228 11.3022 4.42708 11.3009C4.28436 11.3011 4.14175 11.2929 4 11.2763C4.81766 11.8018 5.76932 12.0806 6.74125 12.0797C8.09344 12.089 9.39293 11.5559 10.3491 10.5997C11.3052 9.64347 11.8381 8.34394 11.8287 6.99175C11.8287 6.91425 11.8269 6.83717 11.8233 6.7605C12.1735 6.50742 12.4758 6.1939 12.7158 5.83467C12.3896 5.97928 12.0435 6.07422 11.6892 6.11633Z" fill="white"/>
</svg>
