<svg width="16" height="16" viewBox="0 0 16 16" fill="none" xmlns="http://www.w3.org/2000/svg">
<rect width="16" height="16" rx="8" fill="#0077B5"/>
<path d="M8.72222 11.5H6.83333V6.5H8.72222V7.33333C9.12485 6.88136 9.73544 6.61191 10.3868 6.59875C11.5582 6.60449 12.5034 7.44557 12.5 8.47917V11.5H10.6111V8.6875C10.5356 8.22193 10.0831 7.87649 9.55003 7.8775C9.31688 7.884 9.09681 7.97407 8.9406 8.12693C8.78438 8.27978 8.70553 8.48221 8.72222 8.6875V11.5ZM5.88889 11.5H4V6.5H5.88889V11.5ZM4.94444 5.66667C4.42284 5.66667 4 5.29357 4 4.83333C4 4.3731 4.42284 4 4.94444 4C5.46605 4 5.88889 4.3731 5.88889 4.83333C5.88889 5.05435 5.78938 5.26631 5.61227 5.42259C5.43515 5.57887 5.19493 5.66667 4.94444 5.66667Z" fill="white"/>
</svg>
